<svg xmlns="http://www.w3.org/2000/svg" width="120" height="40" viewBox="0 0 300 100">
  <path d="M33 0h17v100h-17V0zm67 0h17v100h-17V0z" fill="#E50914"/>
  <path d="M33 0L50 100 117 22V0H33z" fill="#E50914"/>
  <path d="M167 0h17v100h-17V0zm67 0h17v100h-17V0z" fill="#E50914"/>
  <path d="M167 0l17 100 67-78V0h-84z" fill="#E50914"/>
  <path d="M233.5 96c-2.1 0-4.2-.3-6.1-.8-1.9-.5-3.5-1.2-4.7-2l3.1-7c1.2.7 2.4 1.3 3.8 1.7 1.4.4 2.8.6 4.2.6 2.1 0 3.7-.4 4.7-1.2 1-.8 1.5-2 1.5-3.4 0-1-.3-1.8-.9-2.4-.6-.6-1.3-1.1-2.3-1.5-.9-.4-2.2-.8-3.7-1.2-2.5-.7-4.5-1.5-6-2.2-1.5-.8-2.8-1.9-3.9-3.4-1.1-1.5-1.6-3.4-1.6-5.8 0-2.2.6-4.2 1.7-5.9 1.1-1.7 2.8-3.1 4.9-4.1 2.1-1 4.6-1.5 7.5-1.5 1.8 0 3.6.2 5.4.6 1.8.4 3.3 1 4.6 1.8l-2.9 7.1c-2.3-1.4-4.7-2.1-7.2-2.1-2 0-3.5.4-4.5 1.2-1 .8-1.5 1.9-1.5 3.3 0 1 .3 1.8.9 2.4.6.6 1.4 1.1 2.3 1.5.9.4 2.2.8 3.7 1.3 2.4.7 4.4 1.4 5.9 2.2 1.5.8 2.8 1.9 3.9 3.3 1.1 1.5 1.6 3.4 1.6 5.8 0 2.2-.6 4.1-1.7 5.8-1.1 1.7-2.8 3-4.9 4-2.2 1-4.7 1.5-7.5 1.5z" fill="#E50914"/>
</svg> 